<svg width="20" height="18" viewBox="0 0 20 18" fill="none" xmlns="http://www.w3.org/2000/svg">
<path id="bars" fill-rule="evenodd" clip-rule="evenodd" d="M19.66 9.00008C19.66 8.67018 19.395 8.40315 19.0686 8.40315H0.931432C0.604964 8.40315 0.340004 8.67018 0.340004 9.00008C0.340004 9.32999 0.604964 9.59702 0.931432 9.59702H19.0686C19.395 9.59702 19.66 9.32999 19.66 9.00008ZM19.66 16.6608C19.66 16.3309 19.395 16.0639 19.0686 16.0639H0.931432C0.604964 16.0639 0.340004 16.3309 0.340004 16.6608C0.340004 16.9907 0.604964 17.2577 0.931432 17.2577H19.0686C19.395 17.2577 19.66 16.9907 19.66 16.6608ZM19.0686 1.93631H0.931432C0.604964 1.93631 0.340004 1.66928 0.340004 1.33937C0.340004 1.00946 0.604964 0.742432 0.931432 0.742432H19.0686C19.395 0.742432 19.66 1.00946 19.66 1.33937C19.66 1.66928 19.395 1.93631 19.0686 1.93631Z" fill="#020303"/>
</svg>
