<svg width="128" height="29" viewBox="0 0 128 29" fill="none" xmlns="http://www.w3.org/2000/svg">
<g id="Group-22">
<path id="Fill-2" d="M70.6787 18.9012C70.3791 18.3756 69.9779 17.8894 69.4856 17.4562C68.9857 17.0167 68.4042 16.6163 67.7572 16.2663C67.1018 15.912 66.4127 15.5859 65.7092 15.2975C65.2348 15.095 64.7893 14.8791 64.3837 14.6554C63.97 14.4273 63.6073 14.1817 63.3055 13.9256C62.9927 13.6602 62.7426 13.3694 62.5621 13.0612C62.3719 12.737 62.2754 12.3828 62.2754 12.0091C62.2754 11.7041 62.3562 11.4257 62.5151 11.1817C62.6662 10.9489 62.871 10.7536 63.1238 10.6014C63.3651 10.4563 63.6416 10.3452 63.9459 10.271C64.2457 10.1985 64.5653 10.1616 64.8957 10.1616C65.0834 10.1616 65.3019 10.1782 65.5454 10.211C65.8164 10.2477 66.0882 10.3508 66.3534 10.5175C66.6142 10.6819 66.869 10.9295 67.1108 11.2531C67.312 11.5226 67.4884 11.8838 67.6363 12.3281L69.9683 11.5004C69.7245 11.117 69.4604 10.7644 69.1817 10.4511C68.8398 10.0657 68.4355 9.73203 67.9801 9.45976C67.5244 9.18749 66.988 8.97578 66.3858 8.83103C65.7776 8.68517 65.0672 8.61099 64.274 8.61099C63.4157 8.61099 62.6195 8.72324 61.9077 8.94439C61.203 9.16359 60.5923 9.47532 60.0927 9.8715C59.5988 10.263 59.2086 10.7392 58.9326 11.2868C58.6586 11.8313 58.5198 12.4445 58.5198 13.1085C58.5198 13.8106 58.6699 14.4329 58.9656 14.9585C59.2688 15.4978 59.6741 15.9851 60.1699 16.4069C60.6753 16.8372 61.2522 17.2251 61.8841 17.5593C62.531 17.9021 63.1846 18.2219 63.8263 18.5097C64.2476 18.7017 64.6489 18.9098 65.0185 19.1285C65.3986 19.3538 65.7295 19.6022 66.0021 19.8669C66.2836 20.1403 66.5092 20.4523 66.6727 20.7943C66.8404 21.1449 66.9256 21.5447 66.9256 21.9829C66.9256 22.269 66.8566 22.5413 66.7206 22.7916C66.5884 23.0345 66.4009 23.2492 66.1632 23.4295C65.9326 23.6043 65.6548 23.7451 65.3371 23.8485C65.0204 23.9513 64.6681 24.0035 64.2897 24.0035C63.3932 24.0035 62.6352 23.7168 62.0363 23.1514C61.5133 22.6577 61.0925 21.9898 60.785 21.1655L58.469 22.0637C58.6754 22.4252 58.9082 22.793 59.1616 23.1589C59.4699 23.6043 59.8682 24.0141 60.345 24.3764C60.8207 24.7389 61.4133 25.039 62.1067 25.269C62.8006 25.4999 63.6606 25.6169 64.6626 25.6169C65.8499 25.6169 66.8703 25.4838 67.6954 25.221C68.5092 24.9618 69.1792 24.6028 69.6871 24.1538C70.1889 23.7099 70.5556 23.1845 70.7763 22.5919C71.0019 21.987 71.1162 21.3275 71.1162 20.6321C71.1162 19.9936 70.9689 19.4113 70.6787 18.9012Z" fill="#57C2E9"/>
<path id="Fill-4" d="M73.7915 25.3038H78.293V9.6879L73.7915 10.9973V25.3038Z" fill="#57C2E9"/>
<path id="Fill-6" d="M77.7778 3.66457C77.5552 3.46287 77.2902 3.30062 76.9907 3.18198C76.6925 3.06419 76.3707 3.00473 76.034 3.00473C75.6973 3.00473 75.3755 3.06419 75.0773 3.18198C74.7777 3.30062 74.5128 3.46287 74.2902 3.66457C74.0709 3.86294 73.8972 4.09993 73.7732 4.36831C73.6512 4.63308 73.5894 4.92147 73.5894 5.22486C73.5894 5.5288 73.6512 5.81719 73.7732 6.08196C73.8963 6.34895 74.0692 6.58233 74.2877 6.77542C74.5122 6.97379 74.7777 7.13437 75.0773 7.25245C75.3689 7.36775 75.6998 7.42859 76.034 7.42859C76.3682 7.42859 76.6988 7.36775 76.9907 7.25245C77.2905 7.13409 77.5563 6.97351 77.7803 6.77542C77.9996 6.58149 78.176 6.34701 78.3041 6.07835C78.4305 5.81385 78.4948 5.52658 78.4948 5.22486C78.4948 4.92369 78.4305 4.63669 78.3041 4.37165C78.1755 4.10215 77.9985 3.86433 77.7778 3.66457Z" fill="#57C2E9"/>
<path id="Fill-8" fill-rule="evenodd" clip-rule="evenodd" d="M91.3504 8.93372C92.1779 9.14404 92.8661 9.44159 93.3957 9.81805C93.9135 10.1865 94.3015 10.6368 94.5497 11.1569C94.7995 11.6823 94.9265 12.2813 94.9265 12.9372V25.3037H90.394V23.8456V23.6297L90.2316 23.7698L89.9422 24.0195C89.6679 24.2554 89.3963 24.4732 89.1347 24.6663C88.8819 24.8533 88.5971 25.0205 88.2885 25.1642C87.9834 25.3062 87.63 25.4184 87.2386 25.4979C86.8423 25.5776 86.3639 25.6182 85.8161 25.6182C85.0842 25.6182 84.4172 25.5126 83.8332 25.3042C83.2539 25.0972 82.757 24.8069 82.3565 24.4407C81.9575 24.0768 81.6486 23.6414 81.4378 23.1466C81.2259 22.6498 81.1184 22.1056 81.1184 21.5288C81.1184 20.9231 81.2325 20.3739 81.4573 19.896C81.6851 19.4101 82.0012 18.9636 82.3964 18.5688C82.7976 18.1682 83.2761 17.8017 83.8186 17.4797C84.3705 17.1522 84.971 16.8513 85.6028 16.5857C86.2388 16.3181 86.9091 16.067 87.5948 15.8391C88.2885 15.6088 88.9717 15.3838 89.6201 15.171L90.317 15.0143L90.394 14.9971V14.9173V13.0942C90.394 12.5369 90.3354 12.051 90.2197 11.6503C90.1018 11.2403 89.9328 10.898 89.7176 10.6329C89.4967 10.3609 89.2227 10.1612 88.9036 10.0392C88.5993 9.92335 88.2558 9.86445 87.8826 9.86445C87.4467 9.86445 87.074 9.92362 86.7744 10.04C86.4664 10.1598 86.2119 10.3293 86.0176 10.5435C85.8244 10.7577 85.6842 11.0074 85.6004 11.2858C85.5204 11.5509 85.48 11.837 85.48 12.1363C85.48 12.4374 85.4484 12.728 85.386 13C85.3277 13.2534 85.2241 13.4796 85.0782 13.6718C84.9355 13.8596 84.7352 14.0138 84.4824 14.1302C84.2248 14.2491 83.8791 14.3094 83.4545 14.3094C83.1359 14.3094 82.8413 14.2597 82.5783 14.1613C82.318 14.0647 82.0952 13.9305 81.9157 13.7627C81.7368 13.5954 81.5936 13.3931 81.4903 13.1609C81.3877 12.9314 81.3358 12.6819 81.3358 12.4191C81.3358 11.8995 81.5142 11.4108 81.8662 10.9663C82.2351 10.5001 82.7429 10.0881 83.3753 9.74109C84.0193 9.38797 84.775 9.10903 85.6213 8.91122C86.4713 8.71285 87.3838 8.61227 88.3333 8.61227C89.4964 8.61227 90.5113 8.72035 91.3504 8.93372ZM90.6051 21.7163V16.5407V16.394L90.4702 16.4481L90.1566 16.5746C89.7878 16.7601 89.4134 16.9496 89.0333 17.143C88.6527 17.3369 88.2803 17.5422 87.9263 17.7537C87.571 17.9659 87.2329 18.1951 86.9215 18.4349C86.6088 18.6761 86.3317 18.9372 86.0987 19.2112C85.864 19.487 85.6754 19.7868 85.5389 20.1019C85.4009 20.4203 85.3308 20.7681 85.3308 21.1357C85.3308 21.4871 85.3968 21.8083 85.527 22.0906C85.6581 22.3748 85.8505 22.6115 86.0984 22.794C86.3444 22.9757 86.6472 23.0996 86.9982 23.1627C87.1549 23.191 87.3222 23.2052 87.4954 23.2052C87.7062 23.2052 87.9324 23.1841 88.1679 23.1427C88.4839 23.0866 88.7615 23.0138 88.9935 22.926C89.2263 22.8376 89.4371 22.7332 89.6196 22.6159C89.8018 22.499 89.9708 22.3695 90.1219 22.2311C90.2712 22.0945 90.4243 21.9447 90.5773 21.7858L90.6051 21.7569V21.7163Z" fill="#57C2E9"/>
<path id="Fill-10" fill-rule="evenodd" clip-rule="evenodd" d="M122.397 9.24483C123.492 9.66602 124.451 10.2545 125.245 10.9935C126.038 11.7317 126.667 12.6079 127.115 13.5981C127.563 14.5861 127.79 15.6652 127.79 16.8057C127.79 18.0112 127.562 19.1616 127.113 20.2246C126.663 21.2895 126.031 22.2322 125.237 23.0271C124.444 23.8222 123.487 24.4595 122.396 24.9213C121.305 25.3828 120.102 25.6167 118.819 25.6167C117.533 25.6167 116.328 25.4 115.236 24.9733C114.145 24.5476 113.192 23.9545 112.403 23.2102C111.615 22.4681 110.991 21.579 110.548 20.5677C110.104 19.5587 109.88 18.4571 109.88 17.2941C109.88 16.0358 110.105 14.8611 110.549 13.8037C110.993 12.7469 111.617 11.8239 112.406 11.0602C113.194 10.2964 114.144 9.69047 115.229 9.25955C116.316 8.82836 117.519 8.60944 118.804 8.60944C120.09 8.60944 121.299 8.82336 122.397 9.24483ZM118.787 24.0895C118.853 24.0953 118.918 24.0981 118.982 24.0981C121.034 24.0981 122.64 21.2167 122.64 17.5386C122.64 13.7476 120.92 10.5109 118.804 10.3234C118.739 10.3175 118.674 10.3145 118.61 10.3145C116.559 10.3147 114.952 13.1961 114.952 16.8743C114.952 20.6652 116.672 23.9019 118.787 24.0895Z" fill="#57C2E9"/>
<path id="Fill-12" d="M111.586 3.00494L104.344 12.939L104.267 13.0443L104.187 12.9412L96.4796 3.00494L91.448 3.00606L100.032 14.2212L100.075 14.2764L100.94 15.4069L100.96 15.4336V15.4678V25.3037H105.85V15.1408V15.1083L105.869 15.0821L114.57 3.00494H111.586Z" fill="#57C2E9"/>
<path id="Fill-14" d="M13.1754 0.0540771C5.93275 0.756428 0.269287 6.92422 0.269287 14.43C0.269287 17.1766 1.02755 19.7441 2.34427 21.9303C8.90259 16.9202 13.154 8.98043 13.1754 0.0540771Z" fill="#57C2E9"/>
<path id="Fill-16" d="M18.1804 16.722C16.6391 14.3819 15.41 11.8145 14.5567 9.07953C13.3065 13.0855 11.2527 16.7337 8.58789 19.8315L18.1804 16.722Z" fill="#F9BE00"/>
<path id="Fill-18" d="M18.7112 17.5038L4.02168 24.1614C4.01866 24.1581 4.01591 24.1547 4.01289 24.1514C4.00849 24.1547 4.00437 24.1581 4.00024 24.1614C6.6128 27.0564 10.3744 28.8734 14.5565 28.8734C18.7384 28.8734 22.5 27.0564 25.1128 24.1614C22.658 22.2869 20.4965 20.0395 18.7112 17.5038Z" fill="#F9BE00"/>
<path id="Fill-20" d="M15.9368 0.053894C15.937 0.0541719 15.9373 0.0541719 15.9379 0.0541719C15.9519 5.92496 17.796 11.3687 20.9225 15.8332L26.1014 14.1545L21.2853 16.3371C22.8403 18.4548 24.688 20.3404 26.769 21.9301C28.0857 19.7442 28.8443 17.1765 28.8443 14.4301C28.8443 6.92404 23.18 0.755689 15.9368 0.053894Z" fill="#57C2E9"/>
<path id="Fill-1" fill-rule="evenodd" clip-rule="evenodd" d="M50.2173 19.1943H50.1541H41.3389H41.277L41.2501 19.2507L38.3715 25.3037H35.281L45.817 3.00491H47.8147L57.9266 25.3037H52.9829L50.2437 19.2523L50.2173 19.1943ZM45.7599 9.69447L42.0925 17.517L42.0257 17.6593H42.1816H49.3981H49.5517L49.4877 17.5181L45.9383 9.69558L45.8503 9.50165L45.7599 9.69447Z" fill="#57C2E9"/>
</g>
</svg>
