<svg width="20" height="20" viewBox="0 0 20 20" fill="none" xmlns="http://www.w3.org/2000/svg">
<path id="Mask" fill-rule="evenodd" clip-rule="evenodd" d="M2.81247 1.375C2.01979 1.375 1.37497 2.01982 1.37497 2.8125V17.1875C1.37497 17.9802 2.01979 18.625 2.81247 18.625H17.1875C17.9801 18.625 18.625 17.9802 18.625 17.1875V2.8125C18.625 2.01982 17.9801 1.375 17.1875 1.375H2.81247ZM17.1875 19.8571H2.81247C1.34047 19.8571 0.142822 18.6595 0.142822 17.1875V2.8125C0.142822 1.3405 1.34047 0.142853 2.81247 0.142853H17.1875C18.6595 0.142853 19.8571 1.3405 19.8571 2.8125V17.1875C19.8571 18.6595 18.6595 19.8571 17.1875 19.8571Z" fill="#231F20"/>
</svg>
